<svg width="40" height="40" viewBox="0 0 40 40" fill="none" xmlns="http://www.w3.org/2000/svg">
<g clip-path="url(#clip0_524_99)">
<rect width="40" height="40" rx="4" fill="white"/>
<path d="M25.3574 30.1519C25.3574 30.1519 24.0876 30.1943 23.4982 30.2068C22.9079 30.2184 22.384 30.2242 21.9265 30.2242H20.4458C18.7364 30.2242 17.1353 30.2001 15.6426 30.1519C14.3665 30.1038 13.1083 30.0373 11.8679 29.9526C10.6284 29.8688 9.73184 29.7547 9.17808 29.6102C8.5521 29.4417 8.01038 29.1287 7.55293 28.6712C7.09548 28.2138 6.78248 27.6721 6.61395 27.0461C6.46949 26.4923 6.35537 25.8182 6.27158 25.0237C6.18683 24.2291 6.12038 23.4707 6.07223 22.7484C6.02408 21.8817 6 21.0029 6 20.1121C6 19.2213 6.02408 18.3425 6.07223 17.4757C6.12038 16.7534 6.18683 15.995 6.27158 15.2005C6.35537 14.406 6.46949 13.7318 6.61395 13.1781C6.78248 12.5521 7.09548 12.0104 7.55293 11.5529C8.01038 11.0955 8.5521 10.7825 9.17808 10.6139C9.73184 10.4695 10.6284 10.3549 11.8679 10.2701C13.1083 10.1864 14.3665 10.1204 15.6426 10.0722C17.1353 10.0241 18.7364 10 20.4458 10C22.1553 10 23.7563 10.0241 25.2491 10.0722C26.5251 10.1204 27.7833 10.1864 29.0238 10.2701C30.2632 10.3549 31.1598 10.4695 31.7136 10.6139C32.3396 10.7825 32.8813 11.0955 33.3387 11.5529C33.7962 12.0104 34.1092 12.5521 34.2777 13.1781C34.4222 13.7318 34.5363 14.406 34.6201 15.2005C34.7048 15.995 34.7713 16.7534 34.8194 17.4757C34.8676 18.3425 34.8917 19.2213 34.8917 20.1121C34.8917 21.0029 34.8917 20.726 34.8917 20.726L34.9278 22.7484C34.8594 24.7709 34.856 27.2632 33.4471 28.6712C32.0391 30.0802 29.1321 29.954 29.1321 29.954L25.3574 30.1519ZM17.5567 24.4458L25.0685 20.1121L17.5567 15.7783V24.4458Z" fill="#2368B1"/>
</g>
<defs>
<clipPath id="clip0_524_99">
<rect width="40" height="40" rx="4" fill="white"/>
</clipPath>
</defs>
</svg>
